<svg xmlns="http://www.w3.org/2000/svg" version="1.1" xmlns:xlink="http://www.w3.org/1999/xlink" xmlns:svgjs="http://svgjs.com/svgjs" width="512" height="512" x="0" y="0" viewBox="0 0 24 24" style="enable-background:new 0 0 512 512" xml:space="preserve" class=""><g transform="matrix(1.3399999999999999,0,0,1.3399999999999999,-4.0801840925216535,-4.079815664291374)"><g id="Icon"><g><path d="m13.92 10.08c-1.452-1.452-3.907-1.397-5.48.177-1.404 1.404-2.486 2.485-3.889 3.889-1.574 1.573-1.629 4.028-.177 5.48s3.907 1.397 5.48-.177c.598-.598 1.945-1.944 1.945-1.944.292-.293.292-.768 0-1.061-.293-.293-.768-.293-1.061 0l-1.945 1.945c-.965.965-2.467 1.067-3.358.176s-.789-2.393.176-3.358c0 0 3.889-3.889 3.889-3.889.966-.966 2.468-1.068 3.359-.177.293.292.768.292 1.061 0 .293-.293.293-.768 0-1.061z" fill="#000000" data-original="#000000" class=""></path><path d="m10.031 13.969c.703.703 1.657 1.099 2.651 1.099.995 0 1.949-.396 2.652-1.099 1.486-1.486 2.757-2.756 4.243-4.242.703-.704 1.098-1.658 1.098-2.652 0-.995-.395-1.949-1.098-2.652s-1.657-1.098-2.652-1.098c-.994 0-1.948.395-2.652 1.098-.641.642-1.375 1.376-2.121 2.122-.293.293-.293.768 0 1.061.292.292.768.292 1.06 0l2.122-2.122c.422-.422.994-.659 1.591-.659s1.169.237 1.591.659.659.994.659 1.591-.237 1.169-.659 1.591l-4.243 4.243c-.421.421-.994.659-1.591.659-.596 0-1.169-.238-1.591-.659-.292-.293-.767-.293-1.06 0-.293.292-.293.767 0 1.06z" fill="#000000" data-original="#000000" class=""></path></g></g></g></svg>